# xmcd
#
# Track frame offsets:
#	150
#	18370
#	36857
#	59037
#	74697
#	94045
#	118052
#	136970
#	154755
#	171567
#	188110
#	204517
#	222265
#
# Disc length: 3169 seconds
#
# Revision: 1
# Processed by: cddbd v1.5.1PL2 Copyright (c) Steve Scherf et al.
# Submitted via: audiograbber 1.83.01
#
DISCID=c60c5f0d
DTITLE=EVALDO TOCANTINS - SAX ROMÂTICO-SERTANEJO
DYEAR=1900
DGENRE=
TTITLE0=UM SONHADOR
TTITLE1=EU JURO
TTITLE2=EVIDÊNCIAS
TTITLE3=NÃO APRENDI DIZER ADEUS
TTITLE4=DEU MEDO
TTITLE5=TE AMO CADA VEZ MAIS
TTITLE6=TEMPORAL DE AMOR
TTITLE7=SONHO POR SONHO
TTITLE8=É O AMOR
TTITLE9=DESCULPE MAIS EU VOU CHORAR
TTITLE10=DIZ PRA MIM
TTITLE11=ÍNDIA
TTITLE12=PENSE EM MIM
EXTD=
EXTT0=
EXTT1=
EXTT2=
EXTT3=
EXTT4=
EXTT5=
EXTT6=
EXTT7=
EXTT8=
EXTT9=
EXTT10=
EXTT11=
EXTT12=
PLAYORDER=
